<?xml version="1.0" encoding="UTF-8"?>
<svg version="1.1" xmlns="http://www.w3.org/2000/svg" width="256" height="256">
<path d="M0 0 C84.48 0 168.96 0 256 0 C256 91.80952381 256 91.80952381 246.0625 102.0625 C239.87818609 107.22266002 233.89363488 108.44595452 226.10124207 108.39440918 C225.22843654 108.40050028 224.35563102 108.40659139 223.45637685 108.41286707 C220.54394485 108.42946042 217.63195181 108.42472646 214.71948242 108.41992188 C212.62632291 108.42726437 210.53316745 108.43585113 208.4400177 108.44558716 C202.76222001 108.467794 197.08456748 108.4707342 191.40673232 108.46883965 C186.66281896 108.46871989 181.9189363 108.47728606 177.17503148 108.48561716 C165.98019219 108.50484868 154.78542746 108.50773613 143.59057617 108.50097656 C132.05196058 108.49433744 120.51366479 108.51719575 108.97511405 108.55429029 C99.05980565 108.58500668 89.14460002 108.59634516 79.22924501 108.59245348 C73.31115575 108.59038782 67.39331532 108.59583721 61.47527122 108.62034607 C55.90765267 108.6426421 50.34055319 108.64071117 44.77293205 108.62041855 C42.7340123 108.61701348 40.69505741 108.62207578 38.65618515 108.63640213 C17.2431738 108.776435 17.2431738 108.776435 8.91276836 101.06880951 C-14.89643051 76.84620988 0 17.72361732 0 0 Z " fill="#2BFF41" transform="translate(0,147)"/>
<path d="M0 0 C0.98928125 3.33041464 1.96454291 6.66478326 2.9375 10 C3.21529297 10.93457031 3.49308594 11.86914062 3.77929688 12.83203125 C4.18051758 14.21455078 4.18051758 14.21455078 4.58984375 15.625 C4.83597412 16.46289062 5.08210449 17.30078125 5.33569336 18.1640625 C6.17912065 21.76466939 6.58692141 25.32514314 7 29 C-12.90930534 34.88899744 -33.01212911 40.07061194 -53.09062958 45.34440994 C-61.18068545 47.46934013 -69.27023454 49.5962 -77.35979462 51.72301674 C-79.42242904 52.26523653 -81.48509699 52.8073288 -83.54779816 53.34929466 C-97.3655387 56.98014175 -111.17526322 60.63966165 -124.97737694 64.32945251 C-130.26782497 65.74262919 -135.55977413 67.15017481 -140.85176945 68.55754471 C-145.82589111 69.8810859 -150.7974439 71.21378433 -155.76736355 72.55301189 C-158.82495861 73.3744928 -161.88487961 74.18701507 -164.9455471 74.99696541 C-166.35351497 75.37154867 -167.76048712 75.74989836 -169.1663456 76.13232231 C-171.07484827 76.65100528 -172.98729403 77.15511446 -174.89990234 77.65844727 C-176.49673355 78.08614159 -176.49673355 78.08614159 -178.12582397 78.5224762 C-183.65245351 79.44068619 -187.20818078 77.53820227 -191.9296875 74.796875 C-193.05503906 74.14589844 -194.18039063 73.49492188 -195.33984375 72.82421875 C-195.9210498 72.48310059 -196.50225586 72.14198242 -197.10107422 71.79052734 C-198.85835953 70.75976076 -200.6218516 69.74037495 -202.38671875 68.72265625 C-214.12492866 61.89437185 -214.12492866 61.89437185 -219 58 C-219 57.34 -219 56.68 -219 56 C-212.6870012 54.25734659 -206.36949969 52.53182859 -200.04858398 50.81811523 C-197.89907208 50.23318204 -195.7506194 49.64434179 -193.60327148 49.05151367 C-190.51556574 48.19980663 -187.42431682 47.36224751 -184.33203125 46.52734375 C-183.37351761 46.25969711 -182.41500397 45.99205048 -181.42744446 45.71629333 C-180.52688828 45.47596878 -179.62633209 45.23564423 -178.69848633 44.98803711 C-177.91016922 44.77263779 -177.12185211 44.55723846 -176.30964661 44.33531189 C-171.5376337 43.64251644 -168.34951356 45.17350924 -164.515625 47.86328125 C-153.8194544 55.4883785 -153.8194544 55.4883785 -141.31323242 56.66381836 C-138.52570954 55.85140931 -135.82844183 54.90737589 -133.13525391 53.82275391 C-130.06987426 52.64160488 -126.93205662 51.78780543 -123.77050781 50.90405273 C-120.49780554 49.98655908 -117.25059071 48.992671 -114 48 C-114.54527344 47.68772461 -115.09054688 47.37544922 -115.65234375 47.05371094 C-118.11072659 45.63436255 -120.55521938 44.19264082 -123 42.75 C-123.85851562 42.25886719 -124.71703125 41.76773438 -125.6015625 41.26171875 C-126.41367188 40.77832031 -127.22578125 40.29492188 -128.0625 39.796875 C-128.81660156 39.35698242 -129.57070312 38.91708984 -130.34765625 38.46386719 C-130.89292969 37.98079102 -131.43820313 37.49771484 -132 37 C-132 35.68 -132 34.36 -132 33 C-126.13091209 31.42393536 -120.25933092 29.85766017 -114.38525391 28.30029297 C-112.38844925 27.76943119 -110.3923447 27.23592851 -108.39697266 26.69970703 C-105.52427464 25.92821514 -102.6491704 25.16634014 -99.7734375 24.40625 C-98.88570648 24.16563843 -97.99797546 23.92502686 -97.08334351 23.67712402 C-86.39025629 20.87504339 -86.39025629 20.87504339 -81.62573242 23.11743164 C-80.87654541 23.62653076 -80.1273584 24.13562988 -79.35546875 24.66015625 C-78.09186523 25.4790332 -78.09186523 25.4790332 -76.80273438 26.31445312 C-75.06552109 27.47562257 -73.33367272 28.64486062 -71.60742188 29.82226562 C-66.63656692 33.0213307 -63.29815307 34.79546224 -57.38647461 33.62329102 C-56.59893799 33.41760498 -55.81140137 33.21191895 -55 33 C-54.07775635 32.77948975 -53.1555127 32.55897949 -52.20532227 32.33178711 C-49.18548338 31.57862417 -46.18698995 30.76780197 -43.1875 29.9375 C-41.16139735 29.37958768 -39.13409324 28.8260156 -37.10546875 28.27734375 C-36.22012451 28.03234131 -35.33478027 27.78733887 -34.42260742 27.53491211 C-32 27 -32 27 -28 27 C-30.14720046 24.68830812 -32.285238 23.09802011 -35.01171875 21.51953125 C-35.76904297 21.07802734 -36.52636719 20.63652344 -37.30664062 20.18164062 C-38.09232422 19.72982422 -38.87800781 19.27800781 -39.6875 18.8125 C-40.48478516 18.34908203 -41.28207031 17.88566406 -42.10351562 17.40820312 C-44.06663487 16.26794823 -46.03214871 15.13206227 -48 14 C-47.67 13.01 -47.34 12.02 -47 11 C-44.64372201 10.10853382 -42.42987907 9.42663826 -40 8.80859375 C-38.93543579 8.52242943 -38.93543579 8.52242943 -37.84936523 8.23048401 C-35.56922173 7.62089787 -33.28482566 7.02926552 -31 6.4375 C-29.49058648 6.03562634 -27.98146766 5.632644 -26.47265625 5.22851562 C-6.37049617 -0.12699804 -6.37049617 -0.12699804 0 0 Z " fill="#2BFF41" transform="translate(239,1)"/>
<path d="M0 0 C-5.68280012 11.67307447 -15.80883493 24.73144478 -28 30 C-44.24773357 33.96796657 -62.53213287 31.63591486 -79 30 C-62.31034914 -4.28231386 -34.02634538 -3.38017082 0 0 Z " fill="#2BFF41" transform="translate(197,108)"/>
<path d="M0 0 C-5.68280012 11.67307447 -15.80883493 24.73144478 -28 30 C-44.24773357 33.96796657 -62.53213287 31.63591486 -79 30 C-62.31034914 -4.28231386 -34.02634538 -3.38017082 0 0 Z " fill="#2BFF41" transform="translate(109,108)"/>
<path d="M0 0 C5.09870758 1.93793794 8.7690528 4.99953498 11.5625 9.6875 C13.91088129 15.34742356 13.99348779 21.39239745 12.375 27.26953125 C10.03248048 32.73889601 6.04846806 36.00409185 1 39 C-5.19506258 41.06502086 -10.40814802 40.59872527 -16.3125 37.8125 C-21.53145423 34.92386952 -24.1542238 32.28359574 -26.25 26.625 C-27.63894572 19.91176234 -27.56134941 13.96671983 -24 8 C-16.60826028 0.15477932 -10.75628018 -1.19256928 0 0 Z " fill="#2BFF41" transform="translate(27,79)"/>
<path d="M0 0 C0 9.9 0 19.8 0 30 C-16.5 30 -33 30 -50 30 C-48.02 27.69 -46.04 25.38 -44 23 C-43.18845459 22.04101807 -42.37690918 21.08203613 -41.54077148 20.09399414 C-28.74857085 5.24440597 -20.90133428 -3.31538406 0 0 Z " fill="#2BFF41" transform="translate(256,108)"/>
</svg>
